#format: frame checksums
#version: 2
#hash: MD5
#extradata 0,                              16, e46c7123194c0ebf19a23e5cefebaa63
#tb 0: 1/25
#media_type 0: video
#codec_id 0: utvideo
#dimensions 0: 352x288
#sar 0: 0/1
#stream#, dts,        pts, duration,     size, hash
0,          0,          0,        1,   286288, f77b660b13f4ca2d906dbe620019224f
0,          1,          1,        1,   286388, 61c3e9c05be428c2adf312257580d528
0,          2,          2,        1,   286148, cf2d8de31997ba6c9c87ca0203295ffd
0,          3,          3,        1,   286124, 981f9eeeed512af38eac7c5df0693b85
0,          4,          4,        1,   286644, be9e95106ca59737b1154b865e917110
0,          5,          5,        1,   286280, e70b66f13e4a08c10e1d014ac1be0cf9
0,          6,          6,        1,   286176, b20a78e4bcd02d7fedc0f00af8276847
0,          7,          7,        1,   286132, 80cc66c88ea015b62bbf46ae188eed95
0,          8,          8,        1,   285968, 446ae00d0e1fc233b66ecb35c720464d
0,          9,          9,        1,   285888, 9d4b29bfd62e5cac2d77185e19706325
0,         10,         10,        1,   285792, bc74548c1ed37dc1d6ca523e00b83ed7
0,         11,         11,        1,   285412, f7234684c90e0dfcfd7ff9a7612b9cb9
0,         12,         12,        1,   286080, 3873173b7da6113b058c0e50d1fb2ac9
0,         13,         13,        1,   285524, 90654181491240e1883cfa8e9dcbc53a
0,         14,         14,        1,   285628, 5ae2de1a60c2586af4a27dca27e0d614
0,         15,         15,        1,   285620, 9d78ee5f1390c05af2677bedf2b088e4
0,         16,         16,        1,   285768, 7c47cbbba7af11ace3233c904e628242
0,         17,         17,        1,   285880, 8292ea2eb80b860edf0747707eb99966
0,         18,         18,        1,   285956, 17aef410ca3fec63ef83185401e005a3
0,         19,         19,        1,   285992, 779819d6d090a67261ef3611f7b50ad6
0,         20,         20,        1,   285920, 52fbe43f864350643cb4e8a57fcf8f63
0,         21,         21,        1,   286040, c2e7919e6e20c7fcf78c0229e4d456d4
0,         22,         22,        1,   285844, edc46036a229878d26a8df1f6dfbd661
0,         23,         23,        1,   285868, 7e5a9af2d70dc57a7ca0a03f88a3a1a9
0,         24,         24,        1,   286056, 174d2c8aca73cb5481e12a5a22516d02
0,         25,         25,        1,   285836, cf1d28a88aa4fc2a5e16e03e2081919f
0,         26,         26,        1,   286004, 2ffd12c7501e4709939712a62945ec29
0,         27,         27,        1,   286264, 61962127ef2a4612a9a352119b7444dd
0,         28,         28,        1,   286632, 9355ea7ef38424633b9e0b77ebb23d77
0,         29,         29,        1,   286508, a741f67693b0154355966a1b07265939
0,         30,         30,        1,   286124, 0fb2a3a0b6e525907b6d0c50ca8f7be1
0,         31,         31,        1,   286308, 89fd53c38119426cdd63be714e857dac
0,         32,         32,        1,   286032, 674d9043981cce19c39e2c6d405d856a
0,         33,         33,        1,   285672, 7b9678e7772b71abf5a95fa967d319af
0,         34,         34,        1,   285520, 6e626d4c722ccafea6600a62c093a47a
0,         35,         35,        1,   285828, 49e9023d9c820798af6b445ec1d87b13
0,         36,         36,        1,   286344, 6cf611f3ef47442659e3ce3807d3a480
0,         37,         37,        1,   286360, a0eca88afed37e0747b1fa61c7e36713
0,         38,         38,        1,   286264, 5b3e605f71b8bab3aa2cc3ed439c6f8a
0,         39,         39,        1,   286096, f9a1c5beca596e2b5eef2392b0adb01e
0,         40,         40,        1,   286284, eb2440f6539413efc86e5a0cd545ecd4
0,         41,         41,        1,   285816, 520d3344f335b580bfb2fad58b1643b4
0,         42,         42,        1,   285864, 48ed0d9ed707808298800c87f2d61d75
0,         43,         43,        1,   286108, 9cb952285049f8354ab7e00c0ab2f7d5
0,         44,         44,        1,   286308, 7ba07e4cc04cd42272ab75e1a65703ca
0,         45,         45,        1,   286552, 55722a7bc60c9eb68a94fd0e8ba3ba4f
0,         46,         46,        1,   286456, e3e54e031bcf3067360955817690a755
0,         47,         47,        1,   286240, 96aa493b2b8d264ffb0d49c952594c11
0,         48,         48,        1,   286128, 6e7e04eec86f257aa46c59f0e8b6b22c
0,         49,         49,        1,   286128, ab72c8a01a095040efb1d4cb1fddbd4a
